<mxfile host="app.diagrams.net" modified="2023-07-29T18:39:40.842Z" agent="Mozilla/5.0 (Windows NT 10.0; Win64; x64) AppleWebKit/537.36 (KHTML, like Gecko) Chrome/115.0.0.0 Safari/537.36" etag="pZljRm0EuRvFb2LkEAUr" version="21.6.6" type="github">
  <diagram name="Page-1" id="-oEIKSZUtXxy4W6JQqp0">
    <mxGraphModel dx="842" dy="457" grid="1" gridSize="10" guides="1" tooltips="1" connect="1" arrows="1" fold="1" page="1" pageScale="1" pageWidth="827" pageHeight="1169" math="0" shadow="0">
      <root>
        <mxCell id="0" />
        <mxCell id="1" parent="0" />
        <mxCell id="hzjN84aZJDGcMtRYpI13-1" value="A" style="ellipse;whiteSpace=wrap;html=1;aspect=fixed;" vertex="1" parent="1">
          <mxGeometry x="160" y="280" width="40" height="40" as="geometry" />
        </mxCell>
        <mxCell id="hzjN84aZJDGcMtRYpI13-2" value="B" style="ellipse;whiteSpace=wrap;html=1;aspect=fixed;" vertex="1" parent="1">
          <mxGeometry x="240" y="280" width="40" height="40" as="geometry" />
        </mxCell>
        <mxCell id="hzjN84aZJDGcMtRYpI13-3" value="D" style="ellipse;whiteSpace=wrap;html=1;aspect=fixed;" vertex="1" parent="1">
          <mxGeometry x="293" y="283" width="40" height="40" as="geometry" />
        </mxCell>
        <mxCell id="hzjN84aZJDGcMtRYpI13-4" value="E" style="ellipse;whiteSpace=wrap;html=1;aspect=fixed;" vertex="1" parent="1">
          <mxGeometry x="367" y="280" width="46" height="46" as="geometry" />
        </mxCell>
        <mxCell id="hzjN84aZJDGcMtRYpI13-5" value="D" style="ellipse;whiteSpace=wrap;html=1;aspect=fixed;" vertex="1" parent="1">
          <mxGeometry x="160" y="360" width="40" height="40" as="geometry" />
        </mxCell>
        <mxCell id="hzjN84aZJDGcMtRYpI13-6" value="C" style="ellipse;whiteSpace=wrap;html=1;aspect=fixed;" vertex="1" parent="1">
          <mxGeometry x="240" y="360" width="40" height="40" as="geometry" />
        </mxCell>
        <mxCell id="hzjN84aZJDGcMtRYpI13-7" value="G" style="ellipse;whiteSpace=wrap;html=1;aspect=fixed;" vertex="1" parent="1">
          <mxGeometry x="293" y="360" width="40" height="40" as="geometry" />
        </mxCell>
        <mxCell id="hzjN84aZJDGcMtRYpI13-8" value="F" style="ellipse;whiteSpace=wrap;html=1;aspect=fixed;" vertex="1" parent="1">
          <mxGeometry x="370" y="360" width="40" height="40" as="geometry" />
        </mxCell>
        <mxCell id="hzjN84aZJDGcMtRYpI13-11" value="" style="endArrow=none;html=1;rounded=0;entryX=0;entryY=0.5;entryDx=0;entryDy=0;exitX=1;exitY=0.5;exitDx=0;exitDy=0;" edge="1" parent="1" source="hzjN84aZJDGcMtRYpI13-1" target="hzjN84aZJDGcMtRYpI13-2">
          <mxGeometry width="50" height="50" relative="1" as="geometry">
            <mxPoint x="200" y="210" as="sourcePoint" />
            <mxPoint x="250" y="160" as="targetPoint" />
          </mxGeometry>
        </mxCell>
        <mxCell id="hzjN84aZJDGcMtRYpI13-13" value="" style="endArrow=none;html=1;rounded=0;exitX=1;exitY=0.5;exitDx=0;exitDy=0;" edge="1" parent="1">
          <mxGeometry width="50" height="50" relative="1" as="geometry">
            <mxPoint x="200" y="384.5" as="sourcePoint" />
            <mxPoint x="240" y="385" as="targetPoint" />
          </mxGeometry>
        </mxCell>
        <mxCell id="hzjN84aZJDGcMtRYpI13-14" value="" style="endArrow=none;html=1;rounded=0;entryX=0.5;entryY=0;entryDx=0;entryDy=0;exitX=0.5;exitY=1;exitDx=0;exitDy=0;" edge="1" parent="1" source="hzjN84aZJDGcMtRYpI13-1" target="hzjN84aZJDGcMtRYpI13-5">
          <mxGeometry width="50" height="50" relative="1" as="geometry">
            <mxPoint x="220" y="220" as="sourcePoint" />
            <mxPoint x="270" y="220" as="targetPoint" />
          </mxGeometry>
        </mxCell>
        <mxCell id="hzjN84aZJDGcMtRYpI13-15" value="" style="endArrow=none;html=1;rounded=0;entryX=0.5;entryY=0;entryDx=0;entryDy=0;exitX=0.5;exitY=1;exitDx=0;exitDy=0;" edge="1" parent="1" source="hzjN84aZJDGcMtRYpI13-2" target="hzjN84aZJDGcMtRYpI13-6">
          <mxGeometry width="50" height="50" relative="1" as="geometry">
            <mxPoint x="230" y="230" as="sourcePoint" />
            <mxPoint x="280" y="230" as="targetPoint" />
          </mxGeometry>
        </mxCell>
        <mxCell id="hzjN84aZJDGcMtRYpI13-16" value="" style="endArrow=none;html=1;rounded=0;exitX=1;exitY=0.5;exitDx=0;exitDy=0;entryX=0;entryY=0.5;entryDx=0;entryDy=0;" edge="1" parent="1" source="hzjN84aZJDGcMtRYpI13-3" target="hzjN84aZJDGcMtRYpI13-4">
          <mxGeometry width="50" height="50" relative="1" as="geometry">
            <mxPoint x="433" y="207.5" as="sourcePoint" />
            <mxPoint x="473" y="208" as="targetPoint" />
          </mxGeometry>
        </mxCell>
        <mxCell id="hzjN84aZJDGcMtRYpI13-17" value="" style="endArrow=none;html=1;rounded=0;entryX=0;entryY=0.5;entryDx=0;entryDy=0;exitX=1;exitY=0.5;exitDx=0;exitDy=0;" edge="1" parent="1" source="hzjN84aZJDGcMtRYpI13-7" target="hzjN84aZJDGcMtRYpI13-8">
          <mxGeometry width="50" height="50" relative="1" as="geometry">
            <mxPoint x="343" y="375" as="sourcePoint" />
            <mxPoint x="473" y="394.5" as="targetPoint" />
          </mxGeometry>
        </mxCell>
        <mxCell id="hzjN84aZJDGcMtRYpI13-18" value="" style="endArrow=none;html=1;rounded=0;entryX=0.5;entryY=1;entryDx=0;entryDy=0;exitX=0.5;exitY=0;exitDx=0;exitDy=0;" edge="1" parent="1" source="hzjN84aZJDGcMtRYpI13-8" target="hzjN84aZJDGcMtRYpI13-4">
          <mxGeometry width="50" height="50" relative="1" as="geometry">
            <mxPoint x="213" y="268" as="sourcePoint" />
            <mxPoint x="263" y="268" as="targetPoint" />
          </mxGeometry>
        </mxCell>
        <mxCell id="hzjN84aZJDGcMtRYpI13-20" value="原图：" style="text;html=1;align=center;verticalAlign=middle;resizable=0;points=[];autosize=1;strokeColor=none;fillColor=none;fontFamily=Comic Sans MS;" vertex="1" parent="1">
          <mxGeometry x="100" y="320" width="60" height="30" as="geometry" />
        </mxCell>
        <mxCell id="hzjN84aZJDGcMtRYpI13-21" value="初始化并查集" style="text;html=1;align=center;verticalAlign=middle;resizable=0;points=[];autosize=1;strokeColor=none;fillColor=none;" vertex="1" parent="1">
          <mxGeometry x="60" y="450" width="100" height="30" as="geometry" />
        </mxCell>
        <mxCell id="hzjN84aZJDGcMtRYpI13-23" value="A" style="rounded=0;whiteSpace=wrap;html=1;" vertex="1" parent="1">
          <mxGeometry x="169" y="455" width="20" height="20" as="geometry" />
        </mxCell>
        <mxCell id="hzjN84aZJDGcMtRYpI13-24" value="B" style="rounded=0;whiteSpace=wrap;html=1;" vertex="1" parent="1">
          <mxGeometry x="199" y="455" width="20" height="20" as="geometry" />
        </mxCell>
        <mxCell id="hzjN84aZJDGcMtRYpI13-25" value="C" style="rounded=0;whiteSpace=wrap;html=1;" vertex="1" parent="1">
          <mxGeometry x="229" y="455" width="20" height="20" as="geometry" />
        </mxCell>
        <mxCell id="hzjN84aZJDGcMtRYpI13-26" value="D" style="rounded=0;whiteSpace=wrap;html=1;" vertex="1" parent="1">
          <mxGeometry x="259" y="455" width="20" height="20" as="geometry" />
        </mxCell>
        <mxCell id="hzjN84aZJDGcMtRYpI13-27" value="E" style="rounded=0;whiteSpace=wrap;html=1;" vertex="1" parent="1">
          <mxGeometry x="289" y="455" width="20" height="20" as="geometry" />
        </mxCell>
        <mxCell id="hzjN84aZJDGcMtRYpI13-28" value="F" style="rounded=0;whiteSpace=wrap;html=1;" vertex="1" parent="1">
          <mxGeometry x="319" y="455" width="20" height="20" as="geometry" />
        </mxCell>
        <mxCell id="hzjN84aZJDGcMtRYpI13-29" value="G" style="rounded=0;whiteSpace=wrap;html=1;" vertex="1" parent="1">
          <mxGeometry x="347" y="455" width="20" height="20" as="geometry" />
        </mxCell>
        <mxCell id="hzjN84aZJDGcMtRYpI13-30" value="遍历构造" style="text;html=1;align=center;verticalAlign=middle;resizable=0;points=[];autosize=1;strokeColor=none;fillColor=none;" vertex="1" parent="1">
          <mxGeometry y="530" width="70" height="30" as="geometry" />
        </mxCell>
        <mxCell id="hzjN84aZJDGcMtRYpI13-31" value="1. 合并A-B" style="text;html=1;align=center;verticalAlign=middle;resizable=0;points=[];autosize=1;strokeColor=none;fillColor=none;" vertex="1" parent="1">
          <mxGeometry x="70" y="518" width="80" height="30" as="geometry" />
        </mxCell>
        <mxCell id="hzjN84aZJDGcMtRYpI13-32" value="A" style="rounded=0;whiteSpace=wrap;html=1;" vertex="1" parent="1">
          <mxGeometry x="169" y="530" width="20" height="20" as="geometry" />
        </mxCell>
        <mxCell id="hzjN84aZJDGcMtRYpI13-33" value="B" style="rounded=0;whiteSpace=wrap;html=1;" vertex="1" parent="1">
          <mxGeometry x="199" y="530" width="20" height="20" as="geometry" />
        </mxCell>
        <mxCell id="hzjN84aZJDGcMtRYpI13-34" value="C" style="rounded=0;whiteSpace=wrap;html=1;" vertex="1" parent="1">
          <mxGeometry x="229" y="530" width="20" height="20" as="geometry" />
        </mxCell>
        <mxCell id="hzjN84aZJDGcMtRYpI13-35" value="D" style="rounded=0;whiteSpace=wrap;html=1;" vertex="1" parent="1">
          <mxGeometry x="259" y="530" width="20" height="20" as="geometry" />
        </mxCell>
        <mxCell id="hzjN84aZJDGcMtRYpI13-36" value="E" style="rounded=0;whiteSpace=wrap;html=1;" vertex="1" parent="1">
          <mxGeometry x="289" y="530" width="20" height="20" as="geometry" />
        </mxCell>
        <mxCell id="hzjN84aZJDGcMtRYpI13-37" value="F" style="rounded=0;whiteSpace=wrap;html=1;" vertex="1" parent="1">
          <mxGeometry x="319" y="530" width="20" height="20" as="geometry" />
        </mxCell>
        <mxCell id="hzjN84aZJDGcMtRYpI13-38" value="G" style="rounded=0;whiteSpace=wrap;html=1;" vertex="1" parent="1">
          <mxGeometry x="347" y="530" width="20" height="20" as="geometry" />
        </mxCell>
      </root>
    </mxGraphModel>
  </diagram>
</mxfile>
